# xmcd
#
# Track frame offsets: 
#        150
#        20740
#        42190
#        58477
#        79492
#        95655
#        112722
#        138285
#        159390
#        177432
#        194430
#        208940
#        222810
#        234437
#
# Disc length: 3456 seconds
#
# Revision: 0
# Processed by: cddbd v1.5.2PL0 Copyright (c) Steve Scherf et al.
# Submitted via: ExactAudioCopy v0.95b4
#
DISCID=ca0d7e0e
DTITLE=Brigette - Starlite Lounge
DYEAR=2005
DGENRE=Soul
TTITLE0=Starlite Lounge
TTITLE1=Much Too Much
TTITLE2=Star
TTITLE3=My Oh My
TTITLE4=One Wish
TTITLE5=Is It Love
TTITLE6=Betcha
TTITLE7=Somehow
TTITLE8=What Would You Say
TTITLE9=Take Me
TTITLE10=Lonely Girl
TTITLE11=Yes My Dear
TTITLE12=Agua De Beber
TTITLE13=Take Me [Remix]
EXTD=
EXTT0=
EXTT1=
EXTT2=
EXTT3=
EXTT4=
EXTT5=
EXTT6=
EXTT7=
EXTT8=
EXTT9=
EXTT10=
EXTT11=
EXTT12=
EXTT13=
PLAYORDER=
